<svg width="795" height="653" viewBox="0 0 795 653" fill="none" xmlns="http://www.w3.org/2000/svg">
<g style="mix-blend-mode:hard-light">
<g opacity="0.3">
<path d="M355.526 517.122C494.167 559.255 618.823 558.689 633.954 515.857C649.085 473.025 548.961 404.146 410.32 362.012C271.68 319.879 147.024 320.445 131.893 363.277C116.762 406.109 216.886 474.988 355.526 517.122Z" fill="#425C9F"/>
</g>
<g opacity="0.3">
<path d="M135.374 257.031C63.684 164.1 333.259 257.031 453.857 257.031C574.455 257.031 549.675 397.454 491.659 428.645C433.642 459.836 286.639 527.154 188.254 479.764C89.8688 432.374 207.066 349.961 135.374 257.031Z" fill="url(#paint0_linear_898_88)"/>
</g>
<g opacity="0.3">
<path d="M681.628 387.094C685.747 316.543 616.192 260.691 526.271 262.346C436.35 264 360.116 322.534 355.996 393.085C351.876 463.635 421.432 519.487 511.353 517.833C601.273 516.178 677.508 457.644 681.628 387.094Z" fill="#F8BA5C"/>
</g>
<g opacity="0.6">
<path d="M281.764 243.459C392.355 231.256 513.021 177.947 569.063 254.568C625.106 331.188 583.345 408.826 511.284 431.049C439.224 453.273 155.284 457.323 99.2408 380.702C43.198 304.081 209.704 265.683 281.764 243.459Z" fill="#A0B4FD"/>
</g>
<g opacity="0.6">
<path d="M265.563 302.671C307.983 259.664 433.614 271.81 551.821 319.248C670.029 366.687 736.049 431.453 693.629 474.46C651.21 517.467 520.996 513.875 402.788 466.437C284.581 418.998 223.144 345.678 265.563 302.671Z" fill="url(#paint1_linear_898_88)"/>
</g>
</g>
<defs>
<linearGradient id="paint0_linear_898_88" x1="100.864" y1="437.67" x2="243.036" y2="142.509" gradientUnits="userSpaceOnUse">
<stop stop-color="#EF8C76"/>
<stop offset="1" stop-color="#A1AAF8" stop-opacity="0"/>
</linearGradient>
<linearGradient id="paint1_linear_898_88" x1="346.18" y1="307.483" x2="677.514" y2="358.123" gradientUnits="userSpaceOnUse">
<stop stop-color="#EE9579"/>
<stop offset="1" stop-color="#F5F85C"/>
</linearGradient>
</defs>
</svg>
