<svg width="242" height="95" viewBox="0 0 242 95" fill="none" xmlns="http://www.w3.org/2000/svg">
<path d="M0.8 92V2.39999H22.56L81.44 62.816V2.39999H103.2V92H81.44L22.56 31.584V92H0.8ZM241.44 42.464V58.208C241.44 82.016 224.8 94.304 192.16 94.304H175.52C141.216 94.304 123.68 78.304 123.68 47.2C123.68 16.096 141.216 0.095993 175.52 0.095993H192.16C224.928 0.095993 241.568 11.232 241.44 33.12H218.528C218.656 23.52 208.416 18.656 188.32 18.656H179.36C157.728 18.656 146.336 28.384 146.336 47.2C146.336 66.016 157.728 75.744 179.36 75.744H188.32C208.16 75.744 218.4 69.984 218.528 58.72V58.464H173.6V42.464H241.44Z" fill="white"/>
</svg>
