<svg width="24" height="26" viewBox="0 0 24 26" fill="none" xmlns="http://www.w3.org/2000/svg">
<g clip-path="url(#clip0_1266_28)">
<path d="M22.0692 10.075C21.8422 9.75605 21.5366 9.50115 21.1822 9.33498C20.8267 9.16815 20.4344 9.09526 20.0428 9.12327C19.6512 9.15128 19.2732 9.27926 18.9452 9.49498C18.6187 9.71006 18.3534 10.006 18.1752 10.354C17.9999 10.7276 17.9435 11.146 18.0136 11.5526C18.0837 11.9593 18.2769 12.3346 18.5672 12.628C19.3618 12.6907 20.1528 12.4672 20.7972 11.998C21.4389 11.5313 21.8913 10.8483 22.0692 10.075ZM15.3002 1.29998L13.8502 0.511983L7.54017 3.99298L8.04317 4.26298L9.00017 4.76098L10.7322 3.80698L15.3012 1.28398L15.3002 1.29998ZM15.8842 1.05998C15.9214 1.06926 15.9557 1.08791 15.9837 1.11417C16.0117 1.14042 16.0325 1.17341 16.0442 1.20998L18.1582 7.39198C18.18 7.44099 18.1818 7.49661 18.1631 7.5469C18.1444 7.59719 18.1067 7.63815 18.0582 7.66098C17.2536 8.09764 16.62 8.79322 16.2602 9.63498C15.9019 10.4744 15.8402 11.4108 16.0852 12.29C16.3791 13.2488 17.0002 14.0741 17.8402 14.622C18.6822 15.172 19.6922 15.412 20.6942 15.302C20.7489 15.2987 20.8034 15.3123 20.8502 15.3409C20.8971 15.3695 20.934 15.4118 20.9562 15.462L23.1402 21.807C23.1542 21.8581 23.152 21.9123 23.1339 21.962C23.1158 22.0118 23.0827 22.0548 23.0392 22.085L16.3272 25.975C16.2952 25.9885 16.2608 25.9953 16.2262 25.995C16.1642 26.0064 16.1001 25.9958 16.0452 25.965L13.6902 24.5C13.6473 24.4778 13.6124 24.4428 13.5902 24.4L8.99017 13.917L1.98517 17.867C1.94321 17.8881 1.89719 17.8999 1.85026 17.9016C1.80332 17.9034 1.75656 17.8949 1.71317 17.877L0.121167 16.979C0.0695502 16.9513 0.0304601 16.9049 0.011876 16.8493C-0.00670805 16.7937 -0.00338486 16.7332 0.0211673 16.68L6.82617 3.87998C6.85165 3.83635 6.8901 3.80174 6.93617 3.78098L13.7212 0.0299828C13.7583 0.0104501 13.7997 0.000244141 13.8417 0.000244141C13.8837 0.000244141 13.925 0.0104501 13.9622 0.0299828L15.8852 1.05998H15.8842ZM7.47017 4.49898L7.14017 4.32998L0.580167 16.71L1.77717 17.378L7.43417 10.043C7.46193 10.0091 7.49738 9.98239 7.53755 9.965C7.57773 9.94761 7.62148 9.94006 7.66517 9.94298C7.70788 9.95068 7.74823 9.96813 7.7831 9.99397C7.81796 10.0198 7.84639 10.0534 7.86617 10.092L14.0262 24.158L15.6722 25.165L9.06017 6.00498L8.77917 5.20698L7.46117 4.48898L7.47117 4.49898H7.47017ZM17.6152 11.881C17.4645 11.3292 17.5068 10.7424 17.7352 10.218C17.9644 9.69106 18.3656 9.25745 18.8732 8.98798C19.3895 8.70228 19.9829 8.58712 20.5686 8.65896C21.1542 8.7308 21.7022 8.98597 22.1342 9.38798C22.3745 9.61674 22.5671 9.89081 22.701 10.1944C22.8348 10.498 22.9072 10.8251 22.914 11.1568C22.9208 11.4885 22.8618 11.8183 22.7405 12.1271C22.6192 12.4359 22.4379 12.7176 22.2072 12.956L22.1342 13.029C21.6221 13.5114 20.9456 13.7808 20.2421 13.7827C19.5386 13.7845 18.8608 13.5187 18.3462 13.039C18.0077 12.7217 17.756 12.323 17.6152 11.881Z" fill="white"/>
</g>
<defs>
<clipPath id="clip0_1266_28">
<rect width="24" height="26" fill="white"/>
</clipPath>
</defs>
</svg>
