<svg width="28" height="28" viewBox="0 0 28 28" fill="none" xmlns="http://www.w3.org/2000/svg">
<g clip-path="url(#clip0_1266_16)">
<path d="M28 14C28 21.732 21.732 28 14 28C6.26801 28 0 21.732 0 14C0 6.26801 6.26801 0 14 0C21.732 0 28 6.26801 28 14Z" fill="#F03E2F"/>
<path d="M8.61998 7.25C8.61998 9.66 10.14 11.09 13.16 11.85L16.37 12.58C19.24 13.22 20.98 14.83 20.98 17.45C21.0007 18.5925 20.6223 19.7065 19.91 20.6C19.91 17.99 18.54 16.58 15.22 15.73L12.07 15.03C9.54998 14.46 7.59998 13.14 7.59998 10.3C7.58638 9.19741 7.94583 8.12258 8.61998 7.25Z" fill="white"/>
<path d="M17.9404 16.8C19.3104 17.67 19.9104 18.87 19.9104 20.6C18.7804 22.02 16.7904 22.82 14.4504 22.82C10.5104 22.82 7.75039 20.9201 7.15039 17.6101H10.9304C11.4104 19.1301 12.7004 19.83 14.4304 19.83C16.5304 19.83 17.9204 18.73 17.9504 16.8" fill="#F9B1AB"/>
<path d="M10.5892 10.82C9.97019 10.4571 9.46047 9.93391 9.11378 9.30563C8.76708 8.67735 8.59623 7.9672 8.61924 7.24998C9.71924 5.84998 11.6192 4.97998 13.9392 4.97998C17.9392 4.97998 20.2692 7.05998 20.8392 9.97998H17.1992C16.7992 8.82998 15.7992 7.92998 13.9692 7.92998C12.0092 7.92998 10.6692 9.04998 10.5992 10.83" fill="#F9B1AB"/>
</g>
<defs>
<clipPath id="clip0_1266_16">
<rect width="28" height="28" fill="white"/>
</clipPath>
</defs>
</svg>
