<svg width="137" height="137" viewBox="0 0 137 137" fill="none" xmlns="http://www.w3.org/2000/svg">
<path d="M27.76 108.35L4.48 85.07C1.72 82.23 0 78.23 0 74.32C0 72.51 1.02 69.68 1.79 68.05L23.28 23.28L27.76 108.35Z" fill="#01579B"/>
<path d="M107.459 27.76L84.1791 4.48C82.1491 2.44 77.9091 0 74.3291 0C71.2491 0 68.2291 0.62 66.2691 1.79L23.2891 23.28L107.459 27.76Z" fill="#40C4FF"/>
<path d="M55.5196 136.11H111.94V111.93L69.8496 98.5L31.3496 111.93L55.5196 136.11Z" fill="#40C4FF"/>
<path d="M23.2891 95.82C23.2891 103 24.1891 104.77 27.7691 108.36L31.3491 111.94H111.939L72.5391 67.17L23.2891 23.29V95.82Z" fill="#29B6F6"/>
<path d="M94.9193 23.28H23.2793L111.929 111.93H136.109V56.41L107.459 27.76C103.439 23.72 99.8593 23.28 94.9193 23.28Z" fill="#01579B"/>
<path opacity="0.2" d="M28.6593 109.25C25.0793 105.65 24.1793 102.11 24.1793 95.82V24.18L23.2793 23.28V95.81C23.2893 102.11 23.2893 103.85 28.6593 109.25Z" fill="white"/>
<path opacity="0.2" d="M135.219 55.52V111.04H111.039L111.939 111.93H136.119V56.42L135.219 55.52Z" fill="#263238"/>
<path opacity="0.2" d="M107.459 27.76C103.019 23.32 99.3791 23.28 94.0291 23.28H23.2891L24.1891 24.18H94.0391C96.6991 24.18 103.449 23.73 107.459 27.76Z" fill="white"/>
<path opacity="0.2" d="M135.22 55.52L107.46 27.76L84.1798 4.48C82.1498 2.44 77.9098 0 74.3298 0C71.2498 0 68.2298 0.62 66.2698 1.79L23.2898 23.28L1.79977 68.05C1.02977 69.68 0.00976562 72.51 0.00976562 74.32C0.00976562 78.23 1.72977 82.23 4.48977 85.07L25.9498 106.37C26.4598 107 27.0598 107.64 27.7798 108.35L28.6798 109.25L31.3698 111.94L54.6498 135.22L55.5498 136.12H111.07H111.97V111.94H136.15V111.88V56.42L135.22 55.52Z" fill="url(#paint0_radial_1266_52)"/>
<defs>
<radialGradient id="paint0_radial_1266_52" cx="0" cy="0" r="1" gradientUnits="userSpaceOnUse" gradientTransform="translate(68.0748 68.0564) scale(68.065 68.065)">
<stop stop-color="white" stop-opacity="0.1"/>
<stop offset="1" stop-color="white" stop-opacity="0"/>
</radialGradient>
</defs>
</svg>
